<?xml version="1.0" encoding="UTF-8"?>
<svg version="1.1" xmlns="http://www.w3.org/2000/svg" width="268" height="171">
<path d="M0 0 C88.44 0 176.88 0 268 0 C268 56.43 268 112.86 268 171 C179.56 171 91.12 171 0 171 C0 114.57 0 58.14 0 0 Z " fill="#FDFDFD" transform="translate(0,0)"/>
<path d="M0 0 C0.76183594 0.09023438 1.52367188 0.18046875 2.30859375 0.2734375 C4.5625 0.625 4.5625 0.625 6.78515625 1.2265625 C7.37167969 1.35804687 7.95820312 1.48953125 8.5625 1.625 C8.8925 1.295 9.2225 0.965 9.5625 0.625 C11.89547433 0.58407063 14.22955225 0.58258277 16.5625 0.625 C16.68655604 6.33577644 16.77705415 12.04576014 16.8371582 17.75756836 C16.862226 19.69846265 16.89628955 21.63926324 16.93969727 23.57983398 C17.00069154 26.37767711 17.02878687 29.17426711 17.05078125 31.97265625 C17.07658768 32.8333522 17.1023941 33.69404816 17.12898254 34.58082581 C17.13173264 40.55443878 15.80285641 44.3296905 11.5625 48.625 C5.27651062 52.7710781 -2.12187666 52.29084279 -9.4375 51.625 C-12.3671875 50.60546875 -12.3671875 50.60546875 -14.4375 49.625 C-14.1075 46.985 -13.7775 44.345 -13.4375 41.625 C-12.633125 41.79 -11.82875 41.955 -11 42.125 C-3.27533273 43.26246009 -3.27533273 43.26246009 4.125 41.4375 C6.0058581 39.06598326 5.88148502 37.57561143 5.5625 34.625 C4.5725 35.285 3.5825 35.945 2.5625 36.625 C-2.43408326 37.45485212 -7.04899437 37.36656335 -11.375 34.5625 C-15.76142601 30.82783069 -17.18462289 27.12848336 -17.75 21.53125 C-18.00111695 14.68831315 -17.79642698 10.01630443 -13.4375 4.625 C-8.95602005 1.14956657 -5.66737509 -0.70722725 0 0 Z " fill="#14191F" transform="translate(107.4375,27.375)"/>
<path d="M0 0 C1.2684375 0.7425 1.2684375 0.7425 2.5625 1.5 C1.9025 4.14 1.2425 6.78 0.5625 9.5 C-1.13519531 9.35691406 -1.13519531 9.35691406 -2.8671875 9.2109375 C-4.34891612 9.09840115 -5.83068945 8.98645242 -7.3125 8.875 C-8.43205078 8.77832031 -8.43205078 8.77832031 -9.57421875 8.6796875 C-11.5245047 8.53912635 -13.48219467 8.51240151 -15.4375 8.5 C-16.0975 9.16 -16.7575 9.82 -17.4375 10.5 C-17.4375 11.82 -17.4375 13.14 -17.4375 14.5 C-16.26832031 14.93570313 -15.09914063 15.37140625 -13.89453125 15.8203125 C-12.34599737 16.42095594 -10.79783978 17.02257013 -9.25 17.625 C-8.48107422 17.90859375 -7.71214844 18.1921875 -6.91992188 18.484375 C-1.57231937 20.5958747 1.39508944 22.64912319 4.5625 27.5 C5.77209712 32.00781534 4.96454343 35.68044994 2.9375 39.8125 C-1.33360648 44.64559417 -5.53949615 47.18079339 -11.91796875 47.703125 C-18.34236989 47.81437004 -23.49847623 46.96359505 -29.4375 44.5 C-30.59587626 40.44568308 -30.27441257 38.28187881 -28.4375 34.5 C-27.509375 34.83 -26.58125 35.16 -25.625 35.5 C-20.68223489 36.91510658 -15.53432962 37.05188601 -10.4375 36.5 C-9.4475 35.84 -8.4575 35.18 -7.4375 34.5 C-7.4375 33.18 -7.4375 31.86 -7.4375 30.5 C-8.53449219 30.12488281 -9.63148437 29.74976562 -10.76171875 29.36328125 C-12.21641077 28.84710021 -13.67082336 28.3301312 -15.125 27.8125 C-15.84623047 27.56822266 -16.56746094 27.32394531 -17.31054688 27.07226562 C-22.62109841 25.15658722 -26.80007023 22.77485953 -29.4375 17.5 C-30.05297295 13.23843416 -30.38743604 9.19874556 -28.23828125 5.35546875 C-21.41745835 -2.80546545 -9.7444299 -4.2306064 0 0 Z " fill="#14191F" transform="translate(64.4375,17.5)"/>
<path d="M0 0 C3.66457744 1.66571702 5.95632855 3.52575853 8 7 C8.93619576 10.69963146 9.11718188 14.14953243 9.09765625 17.95703125 C9.09443359 19.06884766 9.09121094 20.18066406 9.08789062 21.32617188 C9.07532227 23.0519043 9.07532227 23.0519043 9.0625 24.8125 C9.05798828 25.98232422 9.05347656 27.15214844 9.04882812 28.35742188 C9.0370693 31.23833358 9.02063426 34.11914044 9 37 C5.7 37 2.4 37 -1 37 C-1.01981934 36.25314941 -1.03963867 35.50629883 -1.06005859 34.73681641 C-1.15508211 31.36584395 -1.26485259 27.99551071 -1.375 24.625 C-1.4059375 23.449375 -1.436875 22.27375 -1.46875 21.0625 C-1.50742188 19.94101562 -1.54609375 18.81953125 -1.5859375 17.6640625 C-1.63306885 16.10872803 -1.63306885 16.10872803 -1.68115234 14.52197266 C-1.75954472 11.83190165 -1.75954472 11.83190165 -4 10 C-7.39597063 9.78323592 -9.75778445 9.91926148 -13 11 C-13 19.58 -13 28.16 -13 37 C-16.63 37 -20.26 37 -24 37 C-24 25.12 -24 13.24 -24 1 C-20.7 1 -17.4 1 -14 1 C-14 1.99 -14 2.98 -14 4 C-12.4840625 3.01 -12.4840625 3.01 -10.9375 2 C-7.15751566 -0.14580929 -4.37952905 -0.56771673 0 0 Z " fill="#171C22" transform="translate(155,27)"/>
<path d="M0 0 C2.83595797 1.36868319 3.87762489 2.49668577 6 5 C6.6875 7.9375 6.6875 7.9375 6 11 C4.52605955 13.37018263 3.00579171 14.99420829 1 17 C0.34 17 -0.32 17 -1 17 C1.54604597 20.52381687 1.54604597 20.52381687 5 23 C5.66 21.02 6.32 19.04 7 17 C9.31 17 11.62 17 14 17 C12.94124926 20.40312738 11.99097846 23.01353231 10 26 C10.34965848 29.17871348 11.66948266 31.22597687 13.5625 33.75 C14.24505859 34.67039062 14.24505859 34.67039062 14.94140625 35.609375 C15.29074219 36.06828125 15.64007813 36.5271875 16 37 C14.54207116 37.05399736 13.08357288 37.09279177 11.625 37.125 C10.81289062 37.14820313 10.00078125 37.17140625 9.1640625 37.1953125 C7 37 7 37 5 35 C2.73725212 35.35355436 1.04911148 35.97544426 -1 37 C-11.40604586 37.93762008 -11.40604586 37.93762008 -16.1875 35.125 C-18.53224722 32.37598602 -18.96157883 31.33938697 -19.375 27.6875 C-18.90496904 23.06552888 -17.32007547 22.07106981 -14 19 C-13.7018576 15.2236068 -13.7018576 15.2236068 -15 13 C-15.34550163 9.98920008 -15.56701736 7.90735371 -15 5 C-10.83181346 -0.13007574 -6.48700514 -1.43384784 0 0 Z " fill="#171C22" transform="translate(221,105)"/>
<path d="M0 0 C4.34137701 2.08720049 6.60582643 4.20052908 8.41552734 8.68383789 C9.71083645 13.81691957 9.29931249 19.18231295 9.1875 24.4375 C9.16719727 26.25024414 9.16719727 26.25024414 9.14648438 28.09960938 C9.11129946 31.06687082 9.06206696 34.03319937 9 37 C5.7 37 2.4 37 -1 37 C-1.01981934 36.25314941 -1.03963867 35.50629883 -1.06005859 34.73681641 C-1.15508211 31.36584395 -1.26485259 27.99551071 -1.375 24.625 C-1.4059375 23.449375 -1.436875 22.27375 -1.46875 21.0625 C-1.50742188 19.94101562 -1.54609375 18.81953125 -1.5859375 17.6640625 C-1.63306885 16.10872803 -1.63306885 16.10872803 -1.68115234 14.52197266 C-1.75954472 11.83190165 -1.75954472 11.83190165 -4 10 C-8.05261287 9.65509678 -9.54754176 9.69836118 -13 12 C-13.51012565 14.61196291 -13.51012565 14.61196291 -13.51171875 17.6640625 C-13.54716797 18.78554688 -13.58261719 19.90703125 -13.61914062 21.0625 C-13.65297852 22.8259375 -13.65297852 22.8259375 -13.6875 24.625 C-13.72166016 25.80835937 -13.75582031 26.99171875 -13.79101562 28.2109375 C-13.87370575 31.1405306 -13.94278714 34.0698164 -14 37 C-17.3 37 -20.6 37 -24 37 C-24 25.12 -24 13.24 -24 1 C-21.03 1 -18.06 1 -15 1 C-14.34 1.66 -13.68 2.32 -13 3 C-11.7315625 2.2575 -11.7315625 2.2575 -10.4375 1.5 C-6.51916938 -0.209817 -4.23186637 -0.5289833 0 0 Z " fill="#14191F" transform="translate(225,27)"/>
<path d="M0 0 C2.31 0 4.62 0 7 0 C7 0.99 7 1.98 7 3 C7.680625 2.505 8.36125 2.01 9.0625 1.5 C12.70247525 -0.35871077 14.95462873 -0.43343264 19 0 C21.9375 1.5 21.9375 1.5 24 3 C24.680625 2.505 25.36125 2.01 26.0625 1.5 C29.70766131 -0.36135897 31.9540572 -0.51493817 36 0 C38.36497439 1.86708505 39.66030715 3.32061431 41 6 C41.08426094 7.6674606 41.10725143 9.33825187 41.09765625 11.0078125 C41.09443359 11.99394531 41.09121094 12.98007813 41.08789062 13.99609375 C41.07532227 15.54490234 41.07532227 15.54490234 41.0625 17.125 C41.05798828 18.16527344 41.05347656 19.20554688 41.04882812 20.27734375 C41.03701952 22.85161962 41.02055075 25.42578146 41 28 C38.36 28 35.72 28 33 28 C32.67 21.4 32.34 14.8 32 8 C30.02 8 28.04 8 26 8 C25.67 14.6 25.34 21.2 25 28 C22.36 28 19.72 28 17 28 C16.97494385 27.42967041 16.9498877 26.85934082 16.92407227 26.27172852 C16.80843451 23.70173843 16.68556376 21.13214473 16.5625 18.5625 C16.52318359 17.66466797 16.48386719 16.76683594 16.44335938 15.84179688 C16.40146484 14.98779297 16.35957031 14.13378906 16.31640625 13.25390625 C16.27974854 12.46314697 16.24309082 11.6723877 16.20532227 10.85766602 C16.19436743 8.98598559 16.19436743 8.98598559 15 8 C12.69 8 10.38 8 8 8 C8 14.6 8 21.2 8 28 C5.36 28 2.72 28 0 28 C0 18.76 0 9.52 0 0 Z " fill="#181D23" transform="translate(69,114)"/>
<path d="M0 0 C2.97 0 5.94 0 9 0 C12.4078668 7.76600414 15.40341782 15.66119376 18.3125 23.625 C18.85487305 25.10154053 18.85487305 25.10154053 19.40820312 26.60791016 C19.9119043 27.99695557 19.9119043 27.99695557 20.42578125 29.4140625 C20.72911377 30.2488916 21.03244629 31.0837207 21.3449707 31.94384766 C22 34 22 34 22 36 C19.03 36 16.06 36 13 36 C12.34 34.02 11.68 32.04 11 30 C6.71 30 2.42 30 -2 30 C-2.66 31.98 -3.32 33.96 -4 36 C-6.97 36 -9.94 36 -13 36 C-10.80452276 28.3512406 -8.20037764 20.93712307 -5.375 13.5 C-4.96765625 12.4171875 -4.5603125 11.334375 -4.140625 10.21875 C-1.15529337 2.31058673 -1.15529337 2.31058673 0 0 Z " fill="#151A1F" transform="translate(154,106)"/>
<path d="M0 0 C3.76367773 1.77919311 5.50626666 3.29231555 7.875 6.6875 C9.31893989 10.9391008 9.71653219 14.55750043 9 19 C6.80727567 23.38544865 4.61341775 26.23315916 0 28 C-4.42953493 28.60956903 -8.8783269 29.05664352 -12.9765625 27.015625 C-16.42631712 24.26261885 -18.64259007 21.24835779 -19.3359375 16.88671875 C-19.43970114 11.04482598 -18.49808161 7.72713731 -15 3 C-10.71648676 -0.90555619 -5.50129666 -0.78464007 0 0 Z " fill="#161B21" transform="translate(46,114)"/>
<path d="M0 0 C2.64 0 5.28 0 8 0 C12.40774487 10.37357631 12.40774487 10.37357631 13 16 C13.66 16 14.32 16 15 16 C15.12117188 15.43152344 15.24234375 14.86304688 15.3671875 14.27734375 C16.41322054 9.45754536 17.59204484 4.7267066 19 0 C21.97 0 24.94 0 28 0 C26.03534876 5.34701784 24.0316084 10.67806929 22 16 C21.70609375 16.77408203 21.4121875 17.54816406 21.109375 18.34570312 C20.23382109 20.63251169 19.33860108 22.91065303 18.4375 25.1875 C18.16929443 25.89318115 17.90108887 26.5988623 17.62475586 27.32592773 C15.80905658 31.84100645 13.71512055 34.717589 10 38 C9.505 38.495 9.505 38.495 9 39 C5.33655389 39.13568319 2.49384279 39.16461426 -1 38 C-0.505 35.03 -0.505 35.03 0 32 C1.670625 31.8453125 1.670625 31.8453125 3.375 31.6875 C4.57125 31.460625 5.7675 31.23375 7 31 C9.26712288 28.24180857 9.26712288 28.24180857 8.87890625 25.41796875 C7.69804977 20.82574912 5.85467825 16.64022361 3.9375 12.3125 C3.19168527 10.62326151 2.45057837 8.93193436 1.71484375 7.23828125 C1.38605225 6.49618408 1.05726074 5.75408691 0.71850586 4.98950195 C0 3 0 3 0 0 Z " fill="#171C22" transform="translate(113,115)"/>
<path d="M0 0 C9.9 0 19.8 0 30 0 C30 2.31 30 4.62 30 7 C26.37 7 22.74 7 19 7 C19 16.57 19 26.14 19 36 C16.36 36 13.72 36 11 36 C11 26.43 11 16.86 11 7 C7.37 7 3.74 7 0 7 C0 4.69 0 2.38 0 0 Z " fill="#151A20" transform="translate(234,106)"/>
<path d="M0 0 C9.9 0 19.8 0 30 0 C30 2.31 30 4.62 30 7 C26.37 7 22.74 7 19 7 C19 16.57 19 26.14 19 36 C16.36 36 13.72 36 11 36 C11 26.43 11 16.86 11 7 C7.37 7 3.74 7 0 7 C0 4.69 0 2.38 0 0 Z " fill="#151A20" transform="translate(173,106)"/>
<path d="M0 0 C3.63 0 7.26 0 11 0 C11 11.88 11 23.76 11 36 C7.37 36 3.74 36 0 36 C0 24.12 0 12.24 0 0 Z " fill="#20252B" transform="translate(74,28)"/>
<path d="M0 0 C1.98 0 3.96 0 6 0 C6 2.64 6 5.28 6 8 C8.64 8 11.28 8 14 8 C14 9.98 14 11.96 14 14 C11.36 14 8.72 14 6 14 C6.14076315 15.9587043 6.2877676 17.91696093 6.4375 19.875 C6.55931641 21.51082031 6.55931641 21.51082031 6.68359375 23.1796875 C6.83001703 25.94728971 6.83001703 25.94728971 8 28 C10.31 28 12.62 28 15 28 C15.33 29.98 15.66 31.96 16 34 C12.05002539 35.9749873 7.29550815 35.57188718 3 35 C-0.15592095 32.2949249 -1.24790152 29.992448 -2 26 C-2.06743348 23.91765408 -2.08514472 21.83331443 -2.0625 19.75 C-2.05347656 18.67234375 -2.04445313 17.5946875 -2.03515625 16.484375 C-2.02355469 15.66453125 -2.01195312 14.8446875 -2 14 C-3.32 14 -4.64 14 -6 14 C-6 11.69 -6 9.38 -6 7 C-4.35 7 -2.7 7 -1 7 C-0.67 4.69 -0.34 2.38 0 0 Z " fill="#1B1F25" transform="translate(10,107)"/>
<path d="M0 0 C3.3 0 6.6 0 10 0 C10 11.88 10 23.76 10 36 C6.7 36 3.4 36 0 36 C0 24.12 0 12.24 0 0 Z " fill="#13181E" transform="translate(184,28)"/>
<path d="M0 0 C3.4375 0.4375 3.4375 0.4375 6.4375 2.4375 C6.65857787 5.2260289 6.71857535 7.78403181 6.625 10.5625 C6.61146484 11.31660156 6.59792969 12.07070313 6.58398438 12.84765625 C6.54859985 14.71124127 6.49479167 16.57445978 6.4375 18.4375 C3.21440922 20.04904539 -0.07685871 20.02303263 -3.5625 19.4375 C-6.33353921 17.28994461 -7.33658352 15.73887305 -7.9375 12.27734375 C-8.1476063 8.34441652 -7.80809508 5.91886636 -6 2.375 C-3.5625 0.4375 -3.5625 0.4375 0 0 Z " fill="#F9F9F9" transform="translate(107.5625,35.5625)"/>
<path d="M0 0 C1.875 1 1.875 1 3 3 C3.39174433 7.11331542 3.56377991 9.74715576 1.875 13.5 C0 15 0 15 -3 15.5 C-6 15 -6 15 -7.875 13.5 C-9.56377991 9.74715576 -9.39174433 7.11331542 -9 3 C-6.89283346 -0.74607384 -4.00604938 -0.50075617 0 0 Z " fill="#F5F5F6" transform="translate(44,121)"/>
<path d="M0 0 C3.375 0.6875 3.375 0.6875 4.375 1.6875 C4.5625 4.625 4.5625 4.625 4.375 7.6875 C2.375 9.6875 2.375 9.6875 -1.125 9.9375 C-4.625 9.6875 -4.625 9.6875 -6.625 7.6875 C-6.9375 4.6875 -6.9375 4.6875 -6.625 1.6875 C-3.625 -0.3125 -3.625 -0.3125 0 0 Z " fill="#151A20" transform="translate(80.625,13.3125)"/>
<path d="M0 0 C3.0625 0.3125 3.0625 0.3125 4.9375 1.5 C6.44582602 3.93008081 6.42273622 5.50265752 6.0625 8.3125 C4.0625 10.3125 4.0625 10.3125 0.5625 10.5625 C-2.9375 10.3125 -2.9375 10.3125 -4.9375 8.3125 C-5.1875 5.3125 -5.1875 5.3125 -4.9375 2.3125 C-2.9375 0.3125 -2.9375 0.3125 0 0 Z " fill="#161B21" transform="translate(188.9375,12.6875)"/>
<path d="M0 0 C2.46301423 2.46301423 2.76766521 4.27360036 3.625 7.625 C3.88539063 8.62789062 4.14578125 9.63078125 4.4140625 10.6640625 C4.60742188 11.43492188 4.80078125 12.20578125 5 13 C2.03 13 -0.94 13 -4 13 C-3.52343588 11.20763933 -3.04366502 9.41613103 -2.5625 7.625 C-2.29566406 6.62726563 -2.02882812 5.62953125 -1.75390625 4.6015625 C-1 2 -1 2 0 0 Z " fill="#E7E7E8" transform="translate(158,115)"/>
<path d="M0 0 C3.36591866 1.44253657 5.51047079 3.33264727 8 6 C7.67 6.99 7.34 7.98 7 9 C3.625 9.125 3.625 9.125 0 9 C-2 7 -2 7 -2.25 4.5 C-2 2 -2 2 0 0 Z " fill="#F6F6F6" transform="translate(212,127)"/>
<path d="M0 0 C1.2065625 0.0309375 1.2065625 0.0309375 2.4375 0.0625 C3.125 2.375 3.125 2.375 3.4375 5.0625 C2 6.875 2 6.875 0.4375 8.0625 C-0.5525 7.7325 -1.5425 7.4025 -2.5625 7.0625 C-2.94383299 5.0710944 -3.27575582 3.06970923 -3.5625 1.0625 C-2.5625 0.0625 -2.5625 0.0625 0 0 Z " fill="#ECECED" transform="translate(216.5625,110.9375)"/>
</svg>
